HIERARCHY
ROOT Root
{
	OFFSET 0.00000 0.00000 0.00000
	CHANNELS 6 Xposition Yposition Zposition Zrotation Xrotation Yrotation
	JOINT Hips
	{
		OFFSET 0 0 0	
		CHANNELS 3 Zrotation Xrotation Yrotation
		JOINT Spine
		{
			OFFSET 0 4 0	
			CHANNELS 3 Zrotation Xrotation Yrotation
			JOINT Spine1
			{
				OFFSET 0 19.4 0	
				CHANNELS 3 Zrotation Xrotation Yrotation
				JOINT Spine2
				{
					OFFSET 0 16.6 0	
					CHANNELS 3 Zrotation Xrotation Yrotation
					JOINT LeftCollar
					{
						OFFSET 0 10 0	
						CHANNELS 3 Zrotation Xrotation Yrotation
						JOINT LeftArm
						{
							OFFSET 15.6 -2 3	
							CHANNELS 3 Zrotation Xrotation Yrotation
							JOINT LeftForeArm
							{
								OFFSET 3.5 -27 -1	
								CHANNELS 3 Zrotation Xrotation Yrotation
								JOINT LeftHand
								{
									OFFSET 1 -27 1	
									CHANNELS 3 Zrotation Xrotation Yrotation
									End Site
									{
										OFFSET 0 -15 0
									}
								}
							}
						}
					}
					JOINT RightCollar
					{
						OFFSET 0 10 0	
						CHANNELS 3 Zrotation Xrotation Yrotation
						JOINT RightArm
						{
							OFFSET -15.6 -2 3	
							CHANNELS 3 Zrotation Xrotation Yrotation
							JOINT RightForeArm
							{
								OFFSET -3.5 -27 -1	
								CHANNELS 3 Zrotation Xrotation Yrotation
								JOINT RightHand
								{
									OFFSET -1 -27 1	
									CHANNELS 3 Zrotation Xrotation Yrotation
									End Site
									{
										OFFSET 0 -15 0
									}
								}
							}
						}
					}
					JOINT Neck
					{
						OFFSET 0 10 0	
						CHANNELS 3 Zrotation Xrotation Yrotation
						JOINT Head
						{
							OFFSET 0 12.7 3	
							CHANNELS 3 Zrotation Xrotation Yrotation
							End Site
							{
								OFFSET 0 12.7 3
							}
						}
					}
				}
			}
		}
	}
	JOINT LeftHip
	{
		OFFSET 0 0 0	
		CHANNELS 3 Zrotation Xrotation Yrotation
		JOINT LeftUpLeg
		{
			OFFSET 8.8 -6 0	
			CHANNELS 3 Zrotation Xrotation Yrotation
			JOINT LeftLeg
			{
				OFFSET 0 -39 2	
				CHANNELS 3 Zrotation Xrotation Yrotation
				JOINT LeftFoot
				{
					OFFSET 0 -43 -2	
					CHANNELS 3 Zrotation Xrotation Yrotation
					JOINT LeftFootFront
					{
						OFFSET 0 -7 8.5	
						CHANNELS 3 Zrotation Xrotation Yrotation
						End Site
						{
							OFFSET 0 -0.5 9
						}
					}
				}
				JOINT LeftHeel
				{
					OFFSET 0 -43 -2	
					CHANNELS 3 Zrotation Xrotation Yrotation
					End Site
					{
						OFFSET 0 -7.5 -5
					}
				}
			}
		}
	}
	JOINT RightHip
	{
		OFFSET 0 0 0	
		CHANNELS 3 Zrotation Xrotation Yrotation
		JOINT RightUpLeg
		{
			OFFSET -8.8 -6 0	
			CHANNELS 3 Zrotation Xrotation Yrotation
			JOINT RightLeg
			{
				OFFSET 0 -39 2	
				CHANNELS 3 Zrotation Xrotation Yrotation
				JOINT RightFoot
				{
					OFFSET 0 -43 -2	
					CHANNELS 3 Zrotation Xrotation Yrotation
					JOINT RightFootFront
					{
						OFFSET 0 -7 8.5	
						CHANNELS 3 Zrotation Xrotation Yrotation
						End Site
						{
							OFFSET 0 -0.5 9
						}
					}
				}
				JOINT RightHeel
				{
					OFFSET 0 -43 -2	
					CHANNELS 3 Zrotation Xrotation Yrotation
					End Site
					{
						OFFSET 0 -7.5 -5
					}
				}
			}
		}
	}
}
MOTION
Frames: 14
Frame Time: 0.025
0 95.489 0 -0 0 -0 -0.082396 -0.83991 -0.40622 0.2722 -0.38565 -0.099093 0.2722 -0.38565 -0.099093 0.22869 -0.32391 -0.083361 -0 0 -0 -0.70498 -0.021639 0.17552 -0.80967 -0.069154 0.027712 0.082925 0.65572 -0.50384 -0 0 -0 0.39627 0.92898 1.4138 0.19505 -0.74896 0.68036 -0.88741 -0.50796 0.34093 -3.2876 0.86629 2.1792 -3.0574 0.54769 2.0773 -0.082396 -0.83991 -0.40622 0.0063324 0.22703 0.49391 0.65082 0.57796 0.075587 -0.46136 -0.29027 -0.27595 -0 0 2.9182e-09 -0 0 -0 -0.082396 -0.83991 -0.40622 0.076448 0.84047 0.40506 0.21969 0.31383 24.344 -0.079868 -0.27714 -23.806 -0 0 1.3939e-08 -0 0 -0 
-0.006763 95.489 -0.0071038 -0 0 -0 -0.087097 -0.84824 -0.41133 0.2725 -0.39643 -0.098961 0.2725 -0.39643 -0.098961 0.22895 -0.33297 -0.083254 -0 0 -0 -0.70951 -0.001174 0.17286 -0.80589 -0.058373 0.037411 0.087509 0.66335 -0.50581 -0 0 -0 0.39427 0.9687 1.4115 0.20873 -0.77587 0.66581 -0.89486 -0.48203 0.36245 -3.2815 0.88143 2.1761 -3.051 0.55377 2.0739 -0.087097 -0.84824 -0.41133 0.012993 0.23513 0.50608 0.6532 0.58266 0.083081 -0.46579 -0.29465 -0.29067 -0.0044108 0.0044203 -0.0016344 -0 0 -0 -0.087097 -0.84824 -0.41133 0.081015 0.84884 0.41009 0.17896 0.32164 24.364 -0.046071 -0.30103 -23.825 -0.00049035 0.0021624 0.00077364 -0 0 -0 
-0.016114 95.489 -0.015577 -0 0 -0 -0.094145 -0.8587 -0.41776 0.27136 -0.40843 -0.095803 0.27136 -0.40843 -0.095803 0.22799 -0.34305 -0.080604 -0 0 -0 -0.71151 0.018505 0.16596 -0.80031 -0.043985 0.048292 0.083117 0.67011 -0.49764 -0 0 -0 0.39632 1.0109 1.3983 0.22624 -0.81057 0.64708 -0.88594 -0.48278 0.34712 -3.2695 0.89742 2.1667 -3.04 0.55952 2.0666 -0.094145 -0.8587 -0.41776 0.022311 0.24563 0.52113 0.65775 0.58988 0.092922 -0.47711 -0.29733 -0.31104 -0.0062005 0.0059724 -0.0017981 -0 0 -0 -0.094145 -0.8587 -0.41776 0.087891 0.85936 0.4164 0.12878 0.33222 24.389 -0.0044468 -0.32919 -23.85 0.0006157 0.003181 0.0011882 -0 0 -0 
-0.028646 95.489 -0.025376 -0 0 -0 -0.10146 -0.86867 -0.42314 0.26753 -0.41691 -0.08903 0.26753 -0.41691 -0.08903 0.22477 -0.35018 -0.074916 -0 0 -0 -0.70519 0.02959 0.15699 -0.79662 -0.029667 0.06025 0.075327 0.67392 -0.49357 -0 0 -0 0.40724 1.0331 1.3698 0.2387 -0.8351 0.63954 -0.8672 -0.49419 0.31284 -3.2509 0.91033 2.1501 -3.0247 0.56496 2.0555 -0.10146 -0.86867 -0.42314 0.030918 0.25431 0.53355 0.66393 0.5993 0.10291 -0.49086 -0.2993 -0.33018 -0.005839 0.0060299 -0.00071658 -0 0 -0 -0.10146 -0.86867 -0.42314 0.095056 0.86939 0.42165 0.11558 0.33673 24.407 0.007454 -0.33608 -23.866 0.0015118 0.0030971 0.0010589 -0 0 -0 
-0.044993 95.488 -0.036271 -0 0 -0 -0.10702 -0.8791 -0.42726 0.26122 -0.42332 -0.079989 0.26121 -0.42332 -0.079989 0.21946 -0.35557 -0.067321 -0 0 -0 -0.69257 0.03977 0.14375 -0.798 -0.016077 0.082581 0.070478 0.67625 -0.50918 -0 0 -0 0.42763 1.0428 1.332 0.24307 -0.84378 0.65498 -0.84935 -0.50256 0.27599 -3.2268 0.92631 2.1284 -3.006 0.57509 2.0412 -0.10702 -0.8791 -0.42726 0.037168 0.25996 0.54524 0.67079 0.6117 0.1124 -0.50429 -0.30073 -0.34829 -0.0039608 0.0061929 -3.8833e-05 -0 0 -0 -0.10702 -0.8791 -0.42726 0.10048 0.87988 0.42566 0.15504 0.32831 24.412 -0.022387 -0.30989 -23.871 0.00071022 0.0025614 0.00072169 -0 0 -0 
-0.065643 95.488 -0.047897 -0 0 -0 -0.11008 -0.89171 -0.43019 0.25397 -0.42962 -0.06969 0.25397 -0.42962 -0.06969 0.21337 -0.36086 -0.058667 -0 0 -0 -0.67913 0.052544 0.12541 -0.80463 0.00020996 0.11517 0.069381 0.67619 -0.53456 -0 0 -0 0.45242 1.0553 1.3038 0.24257 -0.84591 0.67102 -0.83885 -0.50335 0.25644 -3.2012 0.94874 2.1048 -2.9866 0.59172 2.026 -0.11008 -0.89171 -0.43019 0.040185 0.2669 0.55784 0.67829 0.62519 0.12216 -0.51574 -0.30224 -0.36805 -0.0024633 0.0064967 6.9579e-05 -0 0 -0 -0.11008 -0.89171 -0.43019 0.17165 0.74992 0.36257 0.12276 0.46685 24.481 -0.051046 -0.28892 -23.874 -0.0009291 0.0021589 0.00056169 -0 0 -0 
-0.090858 95.487 -0.059752 -0 0 -0 -0.11208 -0.90851 -0.43191 0.24801 -0.43607 -0.059675 0.24801 -0.43607 -0.059675 0.20836 -0.36628 -0.050254 -0 0 -0 -0.66705 0.062701 0.11033 -0.81128 0.025569 0.14157 0.064585 0.67038 -0.54349 -0 0 -0 0.47419 1.0768 1.2973 0.24068 -0.85152 0.66278 -0.83137 -0.49615 0.25622 -3.1786 0.97519 2.0843 -2.9691 0.61227 2.0138 -0.11208 -0.90851 -0.43191 0.041745 0.27793 0.57219 0.68505 0.63936 0.13117 -0.52456 -0.30406 -0.38988 -0.0020142 0.0066371 8.8763e-05 -0 0 -0 -0.11208 -0.90851 -0.43191 0.17091 0.75284 0.34995 0.15237 0.4814 24.501 -0.075937 -0.27592 -23.879 -0.0021819 0.0023148 0.00078627 -0 0 -0 
-0.12067 95.487 -0.071187 -0 0 -0 -0.11402 -0.92906 -0.43155 0.24398 -0.44225 -0.051749 0.24398 -0.44225 -0.051749 0.20497 -0.37147 -0.043595 -0 0 -0 -0.65788 0.068962 0.10608 -0.81814 0.055816 0.16321 0.0601 0.65809 -0.54096 -0 0 -0 0.48869 1.1031 1.3039 0.23863 -0.85902 0.64022 -0.81981 -0.48636 0.25693 -3.1609 1.0002 2.0708 -2.9549 0.6317 2.0068 -0.11402 -0.92906 -0.43155 0.043459 0.29424 0.58536 0.69083 0.65194 0.1386 -0.53216 -0.30567 -0.411 -0.0023053 0.0063667 -0.00034058 -0 0 -0 -0.11402 -0.92906 -0.43155 0.16987 0.7617 0.33973 0.20031 0.49258 24.515 -0.11784 -0.25371 -23.883 -0.0023564 0.0029742 0.00092802 -0 0 -0 
-0.15493 95.487 -0.081496 -0 0 -0 -0.11573 -0.9499 -0.42896 0.24182 -0.44773 -0.048476 0.24182 -0.44773 -0.048476 0.20316 -0.37608 -0.040846 -0 0 -0 -0.65408 0.074808 0.12085 -0.82477 0.08056 0.18307 0.063423 0.64757 -0.54654 -0 0 -0 0.49674 1.127 1.3134 0.23355 -0.86208 0.62832 -0.80502 -0.47836 0.24849 -3.1491 1.0208 2.0682 -2.9449 0.64751 2.0068 -0.11573 -0.9499 -0.42896 0.045652 0.31258 0.59478 0.69509 0.66099 0.14707 -0.53927 -0.30577 -0.43202 -0.0032581 0.0061706 -0.0010893 -0 0 -0 -0.11573 -0.9499 -0.42896 0.16972 0.77313 0.33254 0.25488 0.50103 24.525 -0.16646 -0.22722 -23.889 -0.0012442 0.0026542 0.00032837 -0 0 -0 
-0.19312 95.486 -0.08999 -0 0 -0 -0.1176 -0.96772 -0.42478 0.24095 -0.45226 -0.048808 0.24095 -0.45226 -0.048808 0.20242 -0.37988 -0.041126 -0 0 -0 -0.65053 0.083725 0.15392 -0.83482 0.095265 0.1972 0.074178 0.64528 -0.56363 -0 0 -0 0.50454 1.147 1.3215 0.22443 -0.8645 0.6317 -0.79595 -0.46689 0.2404 -3.1415 1.036 2.0725 -2.938 0.65896 2.0106 -0.1176 -0.96772 -0.42478 0.048824 0.3273 0.60272 0.69947 0.667 0.15713 -0.54822 -0.30238 -0.45551 -0.0043461 0.0066545 -0.0010324 -0 0 -0 -0.1176 -0.96772 -0.42478 0.17052 0.78267 0.32513 0.30872 0.50788 24.537 -0.21401 -0.20102 -23.897 -0.00029989 0.0026691 0.00019878 -0 0 -0 
-0.23421 95.486 -0.096043 -0 0 -0 -0.12012 -0.98218 -0.41858 0.24035 -0.45655 -0.049011 0.24035 -0.45655 -0.049011 0.20192 -0.38349 -0.041298 -0 0 -0 -0.64173 0.099895 0.19313 -0.84734 0.1019 0.19908 0.087387 0.65196 -0.58663 -0 0 -0 0.51333 1.1695 1.3264 0.21747 -0.87426 0.62919 -0.79491 -0.45037 0.2517 -3.1348 1.0477 2.0744 -2.9318 0.66701 2.0122 -0.12012 -0.98218 -0.41858 0.053819 0.33744 0.61226 0.70476 0.6722 0.16563 -0.56025 -0.29647 -0.48102 -0.00531 0.0072647 -0.0011329 -0 0 -0 -0.12012 -0.98218 -0.41858 0.17276 0.79104 0.31726 0.3694 0.5116 24.544 -0.26718 -0.17119 -23.903 -7.8079e-05 0.0026654 0.00053014 -0 0 -0 
-0.27744 95.485 -0.099529 -0 0 -0 -0.12186 -0.99437 -0.4102 0.24044 -0.46173 -0.052043 0.24044 -0.46173 -0.052043 0.202 -0.38784 -0.043846 -0 0 -0 -0.63209 0.12548 0.23667 -0.85579 0.1056 0.19263 0.099601 0.65902 -0.60626 -0 0 -0 0.51443 1.1958 1.3369 0.21747 -0.88615 0.61328 -0.79236 -0.43895 0.26943 -3.129 1.0577 2.0796 -2.9259 0.67281 2.0146 -0.12186 -0.99437 -0.4102 0.058916 0.34486 0.62286 0.71105 0.67771 0.17317 -0.57504 -0.2898 -0.50894 -0.0053802 0.0075482 -0.0010748 -0 0 -0 -0.12186 -0.99437 -0.4102 0.17563 0.80147 0.31095 0.42685 0.51062 24.548 -0.31829 -0.14189 -23.909 0.00094639 -0.37761 0.00039695 -0 0 -0 
-0.32055 95.485 -0.099955 -0 0 -0 -0.12082 -1.0042 -0.40073 0.24143 -0.46396 -0.055449 0.24143 -0.46396 -0.055449 0.20283 -0.38971 -0.046708 -0 0 -0 -0.62767 0.14279 0.26442 -0.85679 0.11258 0.19031 0.1082 0.65715 -0.61737 -0 0 -0 0.50896 1.2108 1.3422 0.2187 -0.89035 0.603 -0.78236 -0.43458 0.26526 -3.1232 1.0602 2.0845 -2.9191 0.67364 2.0166 -0.12082 -1.0042 -0.40073 0.061642 0.35047 0.63362 0.71741 0.68224 0.18012 -0.59035 -0.2824 -0.53741 -0.0047802 0.0081275 -0.0013224 -0 0 -0 -0.12082 -1.0042 -0.40073 0.17655 0.81354 0.3064 0.47758 0.5072 24.552 -0.36427 -0.11807 -23.918 0.0024037 -0.37913 0.00062754 -0 0 -0 
-0.36164 95.485 -0.097428 -0 0 -0 -0.11826 -1.0127 -0.39022 0.24255 -0.46283 -0.055005 0.24255 -0.46283 -0.055005 0.20378 -0.38876 -0.046336 -0 0 -0 -0.62997 0.14397 0.26447 -0.84927 0.12594 0.19556 0.11182 0.64641 -0.62177 -0 0 -0 0.50645 1.2165 1.3341 0.21471 -0.88912 0.60257 -0.76644 -0.42597 0.25639 -3.113 1.0559 2.0812 -2.908 0.67019 2.0138 -0.11826 -1.0127 -0.39022 0.061669 0.3539 0.64132 0.72493 0.68852 0.18781 -0.605 -0.2754 -0.56483 -0.0050368 0.0086037 -0.0012948 -0 0 -0 -0.11826 -1.0127 -0.39022 0.17588 0.82551 0.30151 0.55398 0.5135 24.549 -0.43693 -0.094752 -23.921 0.0023656 -0.37978 0.0010638 -0 0 -0 
